<svg data-v-423bf9ae="" xmlns="http://www.w3.org/2000/svg" viewBox="0 0 496 90" class="iconLeft"><!----><!----><!----><g data-v-423bf9ae="" id="fb8b9990-2c7e-435b-990e-03ac440089bc" fill="white" transform="matrix(4.231311900141013,0,0,4.231311900141013,149.46410166045607,3.871647787882445)"><path d="M4.83 7.64L8.57 7.64L8.57 13.78L6.71 13.78L6.60 12.13L6.60 12.13Q6.49 12.73 6.14 13.14L6.14 13.14L6.14 13.14Q5.79 13.54 5.30 13.74L5.30 13.74L5.30 13.74Q4.81 13.94 4.28 13.94L4.28 13.94L4.28 13.94Q3.00 13.94 2.16 13.20L2.16 13.20L2.16 13.20Q1.32 12.46 0.92 11.18L0.92 11.18L0.92 11.18Q0.52 9.90 0.52 8.24L0.52 8.24L0.52 8.24Q0.52 5.66 1.52 4.15L1.52 4.15L1.52 4.15Q2.52 2.63 4.68 2.63L4.68 2.63L4.68 2.63Q5.87 2.63 6.69 3.05L6.69 3.05L6.69 3.05Q7.51 3.47 7.95 4.19L7.95 4.19L7.95 4.19Q8.40 4.91 8.52 5.84L8.52 5.84L6.53 6.27L6.53 6.27Q6.40 5.39 6.00 4.97L6.00 4.97L6.00 4.97Q5.59 4.55 4.79 4.55L4.79 4.55L4.79 4.55Q4.01 4.55 3.59 5.04L3.59 5.04L3.59 5.04Q3.17 5.54 3.02 6.35L3.02 6.35L3.02 6.35Q2.88 7.15 2.88 8.26L2.88 8.26L2.88 8.26Q2.88 9.95 3.27 10.92L3.27 10.92L3.27 10.92Q3.66 11.89 4.70 11.89L4.70 11.89L4.70 11.89Q5.36 11.89 5.75 11.46L5.75 11.46L5.75 11.46Q6.14 11.03 6.25 10.29L6.25 10.29L6.25 10.29Q6.32 9.80 6.33 9.35L6.33 9.35L4.83 9.35L4.83 7.64ZM13.31 12.13L13.31 12.13Q13.71 12.13 14 11.93L14 11.93L14 11.93Q14.29 11.74 14.47 11.33L14.47 11.33L16.13 11.83L16.13 11.83Q15.74 12.99 15.00 13.47L15.00 13.47L15.00 13.47Q14.25 13.95 13.19 13.95L13.19 13.95L13.19 13.95Q12.16 13.95 11.36 13.47L11.36 13.47L11.36 13.47Q10.56 12.98 10.11 12.03L10.11 12.03L10.11 12.03Q9.66 11.09 9.66 9.75L9.66 9.75L9.66 9.75Q9.66 7.75 10.49 6.61L10.49 6.61L10.49 6.61Q11.31 5.48 12.99 5.48L12.99 5.48L12.99 5.48Q14.60 5.48 15.39 6.48L15.39 6.48L15.39 6.48Q16.17 7.49 16.17 9.25L16.17 9.25L16.17 9.25Q16.17 9.88 16.11 10.26L16.11 10.26L11.90 10.26L11.90 10.26Q11.89 10.82 12.07 11.25L12.07 11.25L12.07 11.25Q12.24 11.67 12.57 11.90L12.57 11.90L12.57 11.90Q12.89 12.13 13.31 12.13L13.31 12.13ZM13.08 7.21L13.08 7.21Q11.98 7.21 11.94 8.82L11.94 8.82L14.24 8.82L14.24 8.82Q14.21 8.05 13.96 7.63L13.96 7.63L13.96 7.63Q13.71 7.21 13.08 7.21L13.08 7.21ZM17.37 13.78L17.37 5.63L19.52 5.63L19.63 6.87L19.74 6.87L19.74 6.87Q20.02 6.21 20.54 5.84L20.54 5.84L20.54 5.84Q21.06 5.48 21.79 5.48L21.79 5.48L21.79 5.48Q22.46 5.48 22.98 5.82L22.98 5.82L22.98 5.82Q23.50 6.17 23.78 6.81L23.78 6.81L23.78 6.81Q24.07 7.44 24.07 8.29L24.07 8.29L24.07 13.78L21.75 13.78L21.75 8.53L21.75 8.53Q21.75 7.87 21.52 7.57L21.52 7.57L21.52 7.57Q21.29 7.27 20.82 7.27L20.82 7.27L20.82 7.27Q20.30 7.27 20.00 7.67L20.00 7.67L20.00 7.67Q19.70 8.07 19.70 8.79L19.70 8.79L19.70 13.78L17.37 13.78ZM28.72 12.13L28.72 12.13Q29.13 12.13 29.42 11.93L29.42 11.93L29.42 11.93Q29.70 11.74 29.89 11.33L29.89 11.33L31.54 11.83L31.54 11.83Q31.16 12.99 30.41 13.47L30.41 13.47L30.41 13.47Q29.67 13.95 28.61 13.95L28.61 13.95L28.61 13.95Q27.58 13.95 26.78 13.47L26.78 13.47L26.78 13.47Q25.98 12.98 25.53 12.03L25.53 12.03L25.53 12.03Q25.07 11.09 25.07 9.75L25.07 9.75L25.07 9.75Q25.07 7.75 25.90 6.61L25.90 6.61L25.90 6.61Q26.73 5.48 28.40 5.48L28.40 5.48L28.40 5.48Q30.02 5.48 30.80 6.48L30.80 6.48L30.80 6.48Q31.59 7.49 31.59 9.25L31.59 9.25L31.59 9.25Q31.59 9.88 31.52 10.26L31.52 10.26L27.32 10.26L27.32 10.26Q27.31 10.82 27.48 11.25L27.48 11.25L27.48 11.25Q27.66 11.67 27.98 11.90L27.98 11.90L27.98 11.90Q28.31 12.13 28.72 12.13L28.72 12.13ZM28.50 7.21L28.50 7.21Q27.40 7.21 27.36 8.82L27.36 8.82L29.65 8.82L29.65 8.82Q29.62 8.05 29.37 7.63L29.37 7.63L29.37 7.63Q29.13 7.21 28.50 7.21L28.50 7.21ZM35.51 13.95L35.51 13.95Q34.24 13.95 33.33 13.32L33.33 13.32L33.33 13.32Q32.41 12.69 32.06 11.44L32.06 11.44L33.74 10.79L33.74 10.79Q33.93 11.49 34.33 11.86L34.33 11.86L34.33 11.86Q34.72 12.22 35.23 12.22L35.23 12.22L35.23 12.22Q35.57 12.22 35.80 12.03L35.80 12.03L35.80 12.03Q36.03 11.85 36.03 11.48L36.03 11.48L36.03 11.48Q36.03 11.20 35.86 11.00L35.86 11.00L35.86 11.00Q35.70 10.79 35.44 10.65L35.44 10.65L35.44 10.65Q35.19 10.50 34.73 10.29L34.73 10.29L34.73 10.29Q34.51 10.19 34.41 10.14L34.41 10.14L34.41 10.14Q33.83 9.87 33.44 9.59L33.44 9.59L33.44 9.59Q33.04 9.32 32.78 8.88L32.78 8.88L32.78 8.88Q32.52 8.44 32.52 7.81L32.52 7.81L32.52 7.81Q32.52 7.03 32.91 6.50L32.91 6.50L32.91 6.50Q33.30 5.97 33.91 5.72L33.91 5.72L33.91 5.72Q34.53 5.47 35.21 5.47L35.21 5.47L35.21 5.47Q37.73 5.47 38.19 7.62L38.19 7.62L36.60 8.07L36.60 8.07Q36.45 7.57 36.14 7.26L36.14 7.26L36.14 7.26Q35.83 6.95 35.43 6.95L35.43 6.95L35.43 6.95Q35.05 6.95 34.82 7.12L34.82 7.12L34.82 7.12Q34.60 7.30 34.60 7.68L34.60 7.68L34.60 7.68Q34.60 7.94 34.77 8.15L34.77 8.15L34.77 8.15Q34.95 8.35 35.22 8.50L35.22 8.50L35.22 8.50Q35.49 8.65 35.98 8.87L35.98 8.87L35.98 8.87Q36.22 8.98 36.27 9.00L36.27 9.00L36.27 9.00Q36.88 9.29 37.31 9.60L37.31 9.60L37.31 9.60Q37.73 9.91 38.00 10.37L38.00 10.37L38.00 10.37Q38.27 10.84 38.27 11.50L38.27 11.50L38.27 11.50Q38.27 12.28 37.91 12.83L37.91 12.83L37.91 12.83Q37.54 13.38 36.91 13.67L36.91 13.67L36.91 13.67Q36.29 13.95 35.51 13.95L35.51 13.95ZM40.63 16.81L40.63 16.81Q40.11 16.81 39.77 16.75L39.77 16.75L39.77 16.75Q39.43 16.69 39.11 16.57L39.11 16.57L39.54 15.10L39.54 15.10Q39.87 15.19 40.24 15.19L40.24 15.19L40.24 15.19Q40.78 15.19 41.04 14.85L41.04 14.85L41.04 14.85Q41.31 14.51 41.43 13.78L41.43 13.78L40.73 13.78L38.58 5.63L40.97 5.63L41.68 9.24L42.09 11.89L42.11 11.89L42.52 9.24L43.22 5.63L45.60 5.63L43.46 13.78L43.46 13.78Q42.66 16.81 40.63 16.81L40.63 16.81ZM49.18 13.95L49.18 13.95Q47.91 13.95 47.00 13.32L47.00 13.32L47.00 13.32Q46.08 12.69 45.73 11.44L45.73 11.44L47.41 10.79L47.41 10.79Q47.61 11.49 48.00 11.86L48.00 11.86L48.00 11.86Q48.39 12.22 48.90 12.22L48.90 12.22L48.90 12.22Q49.25 12.22 49.48 12.03L49.48 12.03L49.48 12.03Q49.70 11.85 49.70 11.48L49.70 11.48L49.70 11.48Q49.70 11.20 49.54 11.00L49.54 11.00L49.54 11.00Q49.37 10.79 49.12 10.65L49.12 10.65L49.12 10.65Q48.86 10.50 48.41 10.29L48.41 10.29L48.41 10.29Q48.19 10.19 48.08 10.14L48.08 10.14L48.08 10.14Q47.50 9.87 47.11 9.59L47.11 9.59L47.11 9.59Q46.72 9.32 46.45 8.88L46.45 8.88L46.45 8.88Q46.19 8.44 46.19 7.81L46.19 7.81L46.19 7.81Q46.19 7.03 46.58 6.50L46.58 6.50L46.58 6.50Q46.97 5.97 47.58 5.72L47.58 5.72L47.58 5.72Q48.20 5.47 48.88 5.47L48.88 5.47L48.88 5.47Q51.40 5.47 51.86 7.62L51.86 7.62L50.27 8.07L50.27 8.07Q50.12 7.57 49.81 7.26L49.81 7.26L49.81 7.26Q49.50 6.95 49.10 6.95L49.10 6.95L49.10 6.95Q48.72 6.95 48.49 7.12L48.49 7.12L48.49 7.12Q48.27 7.30 48.27 7.68L48.27 7.68L48.27 7.68Q48.27 7.94 48.45 8.15L48.45 8.15L48.45 8.15Q48.62 8.35 48.89 8.50L48.89 8.50L48.89 8.50Q49.16 8.65 49.65 8.87L49.65 8.87L49.65 8.87Q49.89 8.98 49.94 9.00L49.94 9.00L49.94 9.00Q50.55 9.29 50.98 9.60L50.98 9.60L50.98 9.60Q51.41 9.91 51.68 10.37L51.68 10.37L51.68 10.37Q51.95 10.84 51.95 11.50L51.95 11.50L51.95 11.50Q51.95 12.28 51.58 12.83L51.58 12.83L51.58 12.83Q51.21 13.38 50.59 13.67L50.59 13.67L50.59 13.67Q49.96 13.95 49.18 13.95L49.18 13.95ZM53.25 13.78L53.25 2.80L59.03 2.80L59.03 4.84L55.65 4.84L55.65 7.26L58.49 7.26L58.49 9.30L55.65 9.30L55.65 13.78L53.25 13.78ZM60.15 13.78L60.15 2.80L62.49 2.80L62.49 13.78L60.15 13.78ZM67.08 13.96L67.08 13.96Q65.46 13.96 64.56 12.91L64.56 12.91L64.56 12.91Q63.66 11.85 63.66 9.73L63.66 9.73L63.66 9.73Q63.66 7.57 64.56 6.52L64.56 6.52L64.56 6.52Q65.45 5.48 67.08 5.48L67.08 5.48L67.08 5.48Q68.71 5.48 69.60 6.52L69.60 6.52L69.60 6.52Q70.49 7.57 70.49 9.73L70.49 9.73L70.49 9.73Q70.49 11.86 69.60 12.91L69.60 12.91L69.60 12.91Q68.71 13.96 67.08 13.96L67.08 13.96ZM67.06 12.22L67.06 12.22Q67.46 12.22 67.72 12.00L67.72 12.00L67.72 12.00Q67.98 11.79 68.12 11.24L68.12 11.24L68.12 11.24Q68.26 10.69 68.26 9.72L68.26 9.72L68.26 9.72Q68.26 8.73 68.12 8.18L68.12 8.18L68.12 8.18Q67.98 7.62 67.72 7.41L67.72 7.41L67.72 7.41Q67.46 7.20 67.06 7.20L67.06 7.20L67.06 7.20Q66.68 7.20 66.43 7.41L66.43 7.41L66.43 7.41Q66.18 7.62 66.04 8.18L66.04 8.18L66.04 8.18Q65.90 8.73 65.90 9.72L65.90 9.72L65.90 9.72Q65.90 10.68 66.04 11.23L66.04 11.23L66.04 11.23Q66.18 11.79 66.43 12.00L66.43 12.00L66.43 12.00Q66.68 12.22 67.06 12.22L67.06 12.22ZM79.32 5.63L81.68 5.63L80.15 13.78L77.26 13.78L76.36 8.31L76.25 8.31L75.39 13.82L72.50 13.82L70.99 5.63L73.35 5.63L74.05 11.81L75.37 5.63L77.28 5.63L78.59 11.89L79.32 5.63Z"></path></g><!----><g data-v-423bf9ae="" id="f0938782-7ea6-4a1a-af33-10e831392f0c" transform="matrix(1.8247806922050802,0,0,1.8247806922050802,-25.31602181823304,-45.89911853870164)" stroke="none" fill="white"><path d="M44.727 58.35H15.926a2 2 0 0 0 0 4h21.796a8.1 8.1 0 0 0-1.151 4.156c0 4.496 3.659 8.154 8.156 8.154 4.497 0 8.155-3.658 8.155-8.154s-3.658-8.156-8.155-8.156zm0 12.31c-2.292 0-4.156-1.863-4.156-4.154s1.864-4.156 4.156-4.156c2.291 0 4.155 1.865 4.155 4.156s-1.864 4.154-4.155 4.154zM15.924 52.09h42.708c.258 0 .502-.053.728-.143 4.157-.369 7.429-3.866 7.429-8.117 0-4.498-3.659-8.157-8.156-8.157s-8.156 3.659-8.156 8.157a8.09 8.09 0 0 0 1.214 4.259H15.924a2 2 0 0 0 0 4.001zm42.709-12.417a4.161 4.161 0 0 1 4.156 4.157c0 2.29-1.864 4.154-4.156 4.154s-4.156-1.864-4.156-4.154a4.162 4.162 0 0 1 4.156-4.157zM15.926 41.829H34.01c.256 0 .499-.053.724-.14 4.159-.368 7.433-3.865 7.433-8.117 0-4.499-3.659-8.158-8.156-8.158s-8.156 3.659-8.156 8.158c0 1.561.449 3.016 1.213 4.257H15.926a2 2 0 0 0 0 4zM34.01 29.414a4.161 4.161 0 0 1 4.156 4.158c0 2.29-1.864 4.153-4.156 4.153s-4.156-1.863-4.156-4.153a4.161 4.161 0 0 1 4.156-4.158z"></path><path d="M83.923 47.018c.57-1.313.868-2.735.868-4.176 0-3.724-2.01-7.202-5.249-9.083-2.573-1.487-5.746-1.801-8.495-.9-3.438-4.677-8.961-7.52-14.798-7.52a18.328 18.328 0 0 0-10.801 3.535 2 2 0 0 0 2.359 3.231 14.33 14.33 0 0 1 8.441-2.764c5.098 0 9.708 2.629 12.332 7.031l.977 1.637 1.682-.896a6.546 6.546 0 0 1 6.298.109 6.531 6.531 0 0 1 3.254 5.622 6.482 6.482 0 0 1-.919 3.326l-.711 1.188.861 1.083a9.327 9.327 0 0 1 2.054 5.861 9.491 9.491 0 0 1-4.733 8.184 9.469 9.469 0 0 1-9.023.234l-1.25-.639-1.025.959a14.432 14.432 0 0 1-2.614 1.949 14.221 14.221 0 0 1-6.08 1.891 2 2 0 1 0 .304 3.988 18.193 18.193 0 0 0 10.104-4.02c3.735 1.461 8.08 1.131 11.589-.902 4.15-2.402 6.729-6.863 6.729-11.645a13.27 13.27 0 0 0-2.154-7.283z"></path></g><!----></svg>