<svg data-v-423bf9ae="" xmlns="http://www.w3.org/2000/svg" viewBox="0 0 87.77625039996666 60" class="icon"><!----><!----><!----><!----><g data-v-423bf9ae="" id="40030a96-dc0f-4e67-8dd1-9fe543b32638" transform="matrix(1.2165204614700535,0,0,1.2165204614700535,-16.93822249989543,-30.82541282707063)" stroke="none" fill="white"><path d="M44.727 58.35H15.926a2 2 0 0 0 0 4h21.796a8.1 8.1 0 0 0-1.151 4.156c0 4.496 3.659 8.154 8.156 8.154 4.497 0 8.155-3.658 8.155-8.154s-3.658-8.156-8.155-8.156zm0 12.31c-2.292 0-4.156-1.863-4.156-4.154s1.864-4.156 4.156-4.156c2.291 0 4.155 1.865 4.155 4.156s-1.864 4.154-4.155 4.154zM15.924 52.09h42.708c.258 0 .502-.053.728-.143 4.157-.369 7.429-3.866 7.429-8.117 0-4.498-3.659-8.157-8.156-8.157s-8.156 3.659-8.156 8.157a8.09 8.09 0 0 0 1.214 4.259H15.924a2 2 0 0 0 0 4.001zm42.709-12.417a4.161 4.161 0 0 1 4.156 4.157c0 2.29-1.864 4.154-4.156 4.154s-4.156-1.864-4.156-4.154a4.162 4.162 0 0 1 4.156-4.157zM15.926 41.829H34.01c.256 0 .499-.053.724-.14 4.159-.368 7.433-3.865 7.433-8.117 0-4.499-3.659-8.158-8.156-8.158s-8.156 3.659-8.156 8.158c0 1.561.449 3.016 1.213 4.257H15.926a2 2 0 0 0 0 4zM34.01 29.414a4.161 4.161 0 0 1 4.156 4.158c0 2.29-1.864 4.153-4.156 4.153s-4.156-1.863-4.156-4.153a4.161 4.161 0 0 1 4.156-4.158z"></path><path d="M83.923 47.018c.57-1.313.868-2.735.868-4.176 0-3.724-2.01-7.202-5.249-9.083-2.573-1.487-5.746-1.801-8.495-.9-3.438-4.677-8.961-7.52-14.798-7.52a18.328 18.328 0 0 0-10.801 3.535 2 2 0 0 0 2.359 3.231 14.33 14.33 0 0 1 8.441-2.764c5.098 0 9.708 2.629 12.332 7.031l.977 1.637 1.682-.896a6.546 6.546 0 0 1 6.298.109 6.531 6.531 0 0 1 3.254 5.622 6.482 6.482 0 0 1-.919 3.326l-.711 1.188.861 1.083a9.327 9.327 0 0 1 2.054 5.861 9.491 9.491 0 0 1-4.733 8.184 9.469 9.469 0 0 1-9.023.234l-1.25-.639-1.025.959a14.432 14.432 0 0 1-2.614 1.949 14.221 14.221 0 0 1-6.08 1.891 2 2 0 1 0 .304 3.988 18.193 18.193 0 0 0 10.104-4.02c3.735 1.461 8.08 1.131 11.589-.902 4.15-2.402 6.729-6.863 6.729-11.645a13.27 13.27 0 0 0-2.154-7.283z"></path></g><!----></svg>